<svg style="display: none;" aria-hidden="true" xmlns="http://www.w3.org/2000/svg" xmlns:xlink="http://www.w3.org/1999/xlink"><symbol viewBox="0 0 24 24" id="svg-arrow"><path d="M18 15L12 9L6 15" stroke-width="2" stroke-linecap="round" stroke-linejoin="round"/></symbol><symbol viewBox="0 0 22 18" id="svg-email"><path d="M3 1H19C20.1 1 21 1.9 21 3V15C21 16.1 20.1 17 19 17H3C1.9 17 1 16.1 1 15V3C1 1.9 1.9 1 3 1Z" stroke-width="2" stroke-linecap="round" stroke-linejoin="round"/><path d="M21 3L11 10L1 3" stroke-width="2" stroke-linecap="round" stroke-linejoin="round"/></symbol><symbol viewBox="0 0 21 21" id="svg-facebook"><g clip-path="url(#ca)"><path fill-rule="evenodd" clip-rule="evenodd" d="M10.4599 20.9999L10.4693 21H10.466L10.4599 20.9999ZM10.534 21H10.5307L10.5401 20.9999L10.534 21ZM10.4278 20.9998L10.4379 20.9998H10.4321L10.4278 20.9998ZM10.5679 20.9998H10.5621L10.5722 20.9998L10.5679 20.9998ZM10.3969 20.9995L10.4037 20.9995L10.3982 20.9995H10.3969ZM10.6018 20.9995L10.5963 20.9995L10.6031 20.9995H10.6018ZM10.6356 20.9991L10.6333 20.9992L10.6424 20.9991L10.6356 20.9991ZM10.3576 20.9991L10.3667 20.9992L10.3644 20.9991L10.3576 20.9991ZM10.6695 20.9986L10.6639 20.9987L10.6752 20.9986L10.6695 20.9986ZM10.3248 20.9986L10.3361 20.9987L10.3305 20.9986L10.3248 20.9986ZM10.7033 20.9981L10.6958 20.9982L10.7062 20.998L10.7033 20.9981ZM10.2938 20.998L10.3042 20.9982L10.2967 20.9981L10.2938 20.998ZM10.2553 20.9972L10.2646 20.9974L10.2629 20.9974L10.2553 20.9972ZM10.7371 20.9974L10.7354 20.9974L10.7447 20.9972L10.7371 20.9974ZM10.2216 20.9963L10.2343 20.9967L10.2292 20.9966L10.2216 20.9963ZM10.7708 20.9966L10.7657 20.9967L10.7784 20.9963L10.7708 20.9966ZM10.8046 20.9957L10.7963 20.9959L10.8093 20.9955L10.8046 20.9957ZM10.1907 20.9955L10.2037 20.9959L10.1954 20.9957L10.1907 20.9955ZM10.1612 20.9946L10.1704 20.9949L10.1617 20.9946L10.1537 20.9944L10.1612 20.9946ZM10.8383 20.9946L10.8296 20.9949L10.8388 20.9946L10.8463 20.9944L10.8383 20.9946ZM10.872 20.9935L10.8674 20.9937L10.8815 20.9932L10.872 20.9935ZM10.1185 20.9932L10.1326 20.9937L10.128 20.9935L10.1185 20.9932ZM10.0878 20.992L10.1026 20.9926L10.0944 20.9923L10.0878 20.992ZM10.9056 20.9923L10.8974 20.9926L10.9122 20.992L10.9056 20.9923ZM10.0576 20.9908L10.0721 20.9914L10.0608 20.991L10.0576 20.9908ZM10.9392 20.991L10.9279 20.9914L10.9424 20.9908L10.9392 20.991ZM10.0154 20.989L10.0309 20.9897L10.0271 20.9895L10.0154 20.989ZM10.9729 20.9895L10.9691 20.9897L10.9846 20.989L10.9729 20.9895ZM9.98505 20.9876L10.0012 20.9883L9.99358 20.988L9.98505 20.9876ZM11.0064 20.988L10.9988 20.9883L11.015 20.9876L11.0064 20.988ZM9.95519 20.9861L9.97147 20.9869L9.96003 20.9863L9.95519 20.9861ZM11.04 20.9863L11.0285 20.9869L11.0448 20.9861L11.04 20.9863ZM11.0735 20.9846L11.0587 20.9854L11.0718 20.9847L11.0873 20.9838L11.0735 20.9846ZM9.92816 20.9847L9.94133 20.9854L9.92648 20.9846L9.91266 20.9838L9.92816 20.9847ZM11.107 20.9827L11.1004 20.9831L11.1171 20.9821L11.107 20.9827ZM9.88292 20.9821L9.89957 20.9831L9.89301 20.9827L9.88292 20.9821ZM9.85331 20.9804L9.86992 20.9813L9.85954 20.9808L9.85331 20.9804ZM11.1405 20.9808L11.1301 20.9813L11.1467 20.9804L11.1405 20.9808ZM9.82505 20.9786L9.84002 20.9795L9.82607 20.9787L9.81205 20.9778L9.82505 20.9786ZM11.1739 20.9787L11.16 20.9795L11.175 20.9786L11.188 20.9778L11.1739 20.9787ZM11.2073 20.9765L11.2023 20.9768L11.2182 20.9758L11.2073 20.9765ZM9.78182 20.9758L9.79769 20.9768L9.79269 20.9765L9.78182 20.9758ZM9.75224 20.9737L9.76783 20.9748L9.7593 20.9742L9.75224 20.9737ZM11.2407 20.9742L11.2322 20.9748L11.2478 20.9737L11.2407 20.9742ZM9.72275 20.9716L9.73707 20.9726L9.72595 20.9719L9.72275 20.9716ZM11.274 20.9719L11.2629 20.9726L11.2772 20.9716L11.274 20.9719ZM9.68309 20.9686L9.69564 20.9696L9.69261 20.9694L9.68309 20.9686ZM11.3074 20.9694L11.3044 20.9696L11.3169 20.9686L11.3074 20.9694ZM11.3407 20.9668L11.3347 20.9672L11.3474 20.9662L11.3407 20.9668ZM9.65258 20.9662L9.66533 20.9672L9.65934 20.9668L9.65258 20.9662ZM9.62284 20.9638L9.63367 20.9647L9.62604 20.9641L9.62284 20.9638ZM11.374 20.9641L11.3663 20.9647L11.3772 20.9638L11.374 20.9641ZM9.59011 20.961L9.59335 20.9613L9.59282 20.9613L9.59011 20.961ZM11.4072 20.9613L11.4067 20.9613L11.4099 20.961L11.4072 20.9613ZM11.4404 20.9584L11.4375 20.9586L11.4449 20.958L11.4404 20.9584ZM9.55512 20.958L9.56255 20.9586L9.55959 20.9584L9.55512 20.958ZM9.52436 20.9552L9.5299 20.9557L9.52645 20.9554L9.52436 20.9552ZM11.4735 20.9554L11.4701 20.9557L11.4756 20.9552L11.4735 20.9554ZM8.85938 20.8723C3.84238 20.0838 0 15.737 0 10.5C0 4.7049 4.7049 0 10.5 0C16.2951 0 21 4.7049 21 10.5C21 15.737 17.1576 20.0838 12.1406 20.8723V13.5352H14.5872L15.0527 10.5H12.1406V8.53039C12.1406 7.70003 12.5474 6.89062 13.8518 6.89062H15.1758V4.30664C15.1758 4.30664 13.9742 4.10156 12.8254 4.10156C10.427 4.10156 8.85938 5.55516 8.85938 8.18672V10.5H6.19336V13.5352H8.85938V20.8723Z"/></g><defs><clipPath id="ca"><path d="M0 0H21V21H0z"/></clipPath></defs></symbol><symbol viewBox="0 0 40 40" id="svg-heart"><path d="M34.7333 7.68332C33.8821 6.83166 32.8714 6.15607 31.7589 5.69513C30.6465 5.23419 29.4541 4.99695 28.25 4.99695C27.0459 4.99695 25.8535 5.23419 24.7411 5.69513C23.6286 6.15607 22.6179 6.83166 21.7667 7.68332L20 9.44999L18.2333 7.68332C16.5138 5.96384 14.1817 4.99784 11.75 4.99784C9.31827 4.99784 6.98615 5.96384 5.26666 7.68332C3.54717 9.40281 2.58118 11.7349 2.58118 14.1667C2.58118 16.5984 3.54717 18.9305 5.26666 20.65L7.03333 22.4167L20 35.3833L32.9667 22.4167L34.7333 20.65C35.585 19.7987 36.2606 18.788 36.7215 17.6756C37.1825 16.5632 37.4197 15.3708 37.4197 14.1667C37.4197 12.9625 37.1825 11.7702 36.7215 10.6577C36.2606 9.5453 35.585 8.53458 34.7333 7.68332V7.68332Z" stroke-width="2" stroke-linecap="round" stroke-linejoin="round"/></symbol><symbol viewBox="0 0 21 21" id="svg-instagram"><path d="M16.8844 5.911C16.8844 6.06121 16.8548 6.20996 16.7973 6.34873C16.7399 6.48752 16.6555 6.61362 16.5494 6.71984C16.4432 6.82606 16.3171 6.91031 16.1782 6.9678C16.0395 7.02529 15.8908 7.05488 15.7406 7.05488C15.5903 7.05488 15.4416 7.02529 15.3028 6.9678C15.164 6.91031 15.0379 6.82606 14.9317 6.71984C14.8254 6.61362 14.7412 6.48752 14.6838 6.34873C14.6262 6.20996 14.5967 6.06121 14.5967 5.911C14.5967 5.60762 14.7171 5.31667 14.9317 5.10215C15.1463 4.88763 15.4372 4.76711 15.7406 4.76711C16.0439 4.76711 16.3349 4.88763 16.5494 5.10215C16.7639 5.31667 16.8844 5.60762 16.8844 5.911ZM20.5162 11.0745V11.0893L20.4507 15.235C20.4341 16.7301 19.8327 18.1593 18.7755 19.2166C17.7185 20.274 16.2894 20.8756 14.7943 20.8927L10.6338 20.9569H10.619L6.47335 20.8914C4.97824 20.8747 3.54905 20.2734 2.49168 19.2164C1.43429 18.1592 0.832716 16.7301 0.8157 15.235L0.751465 11.0745V11.0597L0.816935 6.91405C0.833624 5.41894 1.43488 3.98975 2.49204 2.93238C3.54919 1.87499 4.97824 1.27342 6.47335 1.25641L10.6338 1.19217H10.6486L14.7943 1.25764C16.2894 1.27433 17.7186 1.87559 18.7759 2.93274C19.8333 3.98989 20.4349 5.41894 20.452 6.91405L20.5162 11.0745ZM18.6756 11.0745L18.6114 6.94247C18.5998 5.92616 18.1909 4.95475 17.4723 4.23607C16.7536 3.5174 15.7822 3.10855 14.7659 3.097L10.6338 3.03276L6.50176 3.097C5.48546 3.10855 4.51405 3.5174 3.79537 4.23607C3.0767 4.95475 2.66784 5.92616 2.65629 6.94247L2.59206 11.0745L2.65629 15.2066C2.66784 16.2229 3.0767 17.1943 3.79537 17.913C4.51405 18.6317 5.48546 19.0405 6.50176 19.0521L10.6338 19.1163L14.7659 19.0521C15.7822 19.0405 16.7536 18.6317 17.4723 17.913C18.1909 17.1943 18.5998 16.2229 18.6114 15.2066L18.6756 11.0745ZM15.7084 11.0745C15.7084 12.4204 15.1738 13.7111 14.2221 14.6628C13.2705 15.6145 11.9797 16.1491 10.6338 16.1491C9.28796 16.1491 7.99721 15.6145 7.04554 14.6628C6.09387 13.7111 5.55923 12.4204 5.55923 11.0745C5.55923 9.72866 6.09387 8.43791 7.04554 7.48624C7.99721 6.53457 9.28796 5.99994 10.6338 5.99994C11.9797 5.99994 13.2705 6.53457 14.2221 7.48624C15.1738 8.43791 15.7084 9.72866 15.7084 11.0745ZM13.8678 11.0745C13.8678 10.2168 13.5272 9.39423 12.9206 8.78774C12.3141 8.18124 11.4915 7.84052 10.6338 7.84052C9.77611 7.84052 8.95353 8.18124 8.34703 8.78774C7.74054 9.39423 7.39982 10.2168 7.39982 11.0745C7.39982 11.9322 7.74054 12.7548 8.34703 13.3613C8.95353 13.9678 9.77611 14.3085 10.6338 14.3085C11.4915 14.3085 12.3141 13.9678 12.9206 13.3613C13.5272 12.7548 13.8678 11.9322 13.8678 11.0745Z"/></symbol><symbol viewBox="0 0 40 40" id="svg-layout"><path d="M31.6667 5H8.33333C6.49238 5 5 6.49238 5 8.33333V31.6667C5 33.5076 6.49238 35 8.33333 35H31.6667C33.5076 35 35 33.5076 35 31.6667V8.33333C35 6.49238 33.5076 5 31.6667 5zM5 15H35M15 35V15" stroke-width="2" stroke-linecap="round" stroke-linejoin="round"/></symbol><symbol viewBox="0 0 20 24" id="svg-location"><path d="M19 10C19 17 10 23 10 23C10 23 1 17 1 10C1 7.61305 1.94821 5.32387 3.63604 3.63604C5.32387 1.94821 7.61305 1 10 1C12.3869 1 14.6761 1.94821 16.364 3.63604C18.0518 5.32387 19 7.61305 19 10Z" stroke-width="2" stroke-linecap="round" stroke-linejoin="round"/><path d="M10 13C11.6569 13 13 11.6569 13 10C13 8.34315 11.6569 7 10 7C8.34315 7 7 8.34315 7 10C7 11.6569 8.34315 13 10 13Z" stroke-width="2" stroke-linecap="round" stroke-linejoin="round"/></symbol><symbol viewBox="0 0 22 22" id="svg-phone"><path d="M20.8881 15.9201V18.9201C20.8892 19.1986 20.8322 19.4743 20.7206 19.7294C20.6091 19.9846 20.4454 20.2137 20.2402 20.402C20.035 20.5902 19.7927 20.7336 19.5289 20.8228C19.265 20.912 18.9855 20.9452 18.7081 20.9201C15.631 20.5857 12.6751 19.5342 10.0781 17.8501C7.66194 16.3148 5.61345 14.2663 4.07812 11.8501C2.38809 9.2413 1.33636 6.27109 1.00812 3.1801C0.983127 2.90356 1.01599 2.62486 1.10462 2.36172C1.19324 2.09859 1.33569 1.85679 1.52288 1.65172C1.71008 1.44665 1.93792 1.28281 2.19191 1.17062C2.44589 1.05843 2.72046 1.00036 2.99812 1.0001H5.99812C6.48342 0.995321 6.95391 1.16718 7.32188 1.48363C7.68985 1.80008 7.93019 2.23954 7.99812 2.7201C8.12474 3.68016 8.35957 4.62282 8.69812 5.5301C8.83266 5.88802 8.86178 6.27701 8.78202 6.65098C8.70227 7.02494 8.51698 7.36821 8.24812 7.6401L6.97812 8.9101C8.40167 11.4136 10.4746 13.4865 12.9781 14.9101L14.2481 13.6401C14.52 13.3712 14.8633 13.1859 15.2372 13.1062C15.6112 13.0264 16.0002 13.0556 16.3581 13.1901C17.2654 13.5286 18.2081 13.7635 19.1681 13.8901C19.6539 13.9586 20.0975 14.2033 20.4146 14.5776C20.7318 14.9519 20.9003 15.4297 20.8881 15.9201Z" stroke-width="2" stroke-linecap="round" stroke-linejoin="round"/></symbol><symbol viewBox="0 0 40 40" id="svg-search"><path d="M18.3333 31.6667C25.6971 31.6667 31.6667 25.6971 31.6667 18.3333 31.6667 10.9695 25.6971 5 18.3333 5 10.9695 5 5 10.9695 5 18.3333 5 25.6971 10.9695 31.6667 18.3333 31.6667zM35 35L27.75 27.75" stroke-width="2" stroke-linecap="round" stroke-linejoin="round"/></symbol><symbol viewBox="0 0 24 20" id="svg-twitter"><path d="M24 2.36749C23.1177 2.76965 22.1682 3.04092 21.1719 3.16231C22.1891 2.53784 22.9691 1.54868 23.3369 0.368687C22.3855 0.947694 21.3322 1.36784 20.2102 1.59464C19.3123 0.613478 18.0325 0 16.6163 0C13.8973 0 11.6928 2.26058 11.6928 5.04921C11.6928 5.44437 11.7362 5.82954 11.8205 6.19973C7.72815 5.98891 4.09963 3.97912 1.67103 0.924214C1.24718 1.66958 1.00457 2.53684 1.00457 3.46306C1.00457 5.21457 1.8737 6.76025 3.19493 7.66548C2.38816 7.63901 1.62865 7.4117 0.964618 7.03352C0.964131 7.0545 0.964131 7.07599 0.964131 7.09747C0.964131 9.54339 2.66147 11.5837 4.9142 12.0483C4.50107 12.1632 4.06601 12.2251 3.61683 12.2251C3.29919 12.2251 2.9908 12.1936 2.69021 12.1342C3.31722 14.14 5.13538 15.6002 7.28969 15.6407C5.60453 16.9951 3.48188 17.8024 1.17459 17.8024C0.777541 17.8024 0.38536 17.7784 0 17.7314C2.17965 19.1647 4.76755 20 7.5479 20C16.6051 20 21.5573 12.3065 21.5573 5.63421C21.5573 5.4154 21.5529 5.19708 21.5436 4.98027C22.5053 4.26987 23.3404 3.38013 24 2.36749Z"/></symbol><symbol viewBox="0 0 40 40" id="svg-volume"><path d="M18.3333 8.33337L9.99998 15H3.33331V25H9.99998L18.3333 31.6667V8.33337zM31.7833 8.21667C34.9078 11.3421 36.6631 15.5806 36.6631 20 36.6631 24.4194 34.9078 28.6579 31.7833 31.7833M25.9 14.1C27.4622 15.6627 28.3399 17.782 28.3399 19.9917 28.3399 22.2014 27.4622 24.3206 25.9 25.8833" stroke-width="2" stroke-linecap="round" stroke-linejoin="round"/></symbol></svg>